<?xml version="1.0" standalone="no"?>
<!DOCTYPE svg PUBLIC "-//W3C//DTD SVG 20010904//EN"
 "http://www.w3.org/TR/2001/REC-SVG-20010904/DTD/svg10.dtd">
<svg version="1.0" xmlns="http://www.w3.org/2000/svg"
 width="78.000000pt" height="91.000000pt" viewBox="0 0 78.000000 91.000000"
 preserveAspectRatio="xMidYMid meet">

<g transform="translate(0.000000,91.000000) scale(0.100000,-0.100000)"
fill="#000000" stroke="none">
<path d="M97 813 c-4 -3 -7 -33 -7 -65 l0 -58 50 0 50 0 0 55 0 55 204 0 205
0 3 -52 3 -53 48 -3 47 -3 0 65 0 66 -298 0 c-164 0 -302 -3 -305 -7z"/>
<path d="M299 700 c-76 -23 -128 -95 -136 -189 -11 -117 32 -207 115 -243 37
-17 61 -20 138 -16 86 4 96 6 131 34 59 47 83 104 83 194 -1 114 -37 179 -122
215 -40 16 -163 19 -209 5z m271 -220 l0 -160 -170 0 -170 0 0 160 0 160 170
0 170 0 0 -160z"/>
<path d="M92 193 l3 -68 106 -3 107 -3 46 -49 46 -49 41 49 42 49 106 3 106 3
3 68 3 67 -44 0 c-49 0 -57 -11 -57 -77 l0 -33 -205 0 -205 0 0 55 0 55 -50 0
-51 0 3 -67z"/>
</g>
</svg>
